<svg version="1.2" xmlns="http://www.w3.org/2000/svg" viewBox="0 0 109 27" width="109" height="27">
	<title>logo-svg</title>
	<style>
		.s0 { fill: #ffffff } 
		.s1 { fill: #5ff59b } 
	</style>
	<path id="Regex" fill-rule="evenodd" class="s0" d="m52.7 21v-14.7h4.7q1.6 0 2.7 0.5 1.2 0.4 1.8 1.4 0.6 1 0.6 2.6 0 1.5-0.6 2.5-0.7 1-1.9 1.6l3.3 6.1h-2.5l-3-5.7q0 0 0 0 0 0-0.1 0h-2.9v5.7zm2.1-7.5h2.6q1.5 0 2.3-0.7 0.8-0.8 0.8-2 0-1.3-0.8-2-0.8-0.7-2.3-0.7h-2.6zm15.2 7.7q-1.8 0-3.1-0.7-1.2-0.8-1.8-2-0.7-1.2-0.7-2.7 0-1.5 0.6-2.7 0.6-1.2 1.7-1.9 1.2-0.7 2.8-0.7 1.3 0 2.2 0.5 1.1 0.5 1.6 1.5 0.6 1 0.6 2.4 0 0.2 0 0.4 0 0.3-0.1 0.6h-7.4q0.1 1.4 0.7 2.2 0.5 0.8 1.3 1.1 0.8 0.3 1.8 0.3 0.7 0 1.5-0.1 0.8-0.2 1.5-0.5l0.2 1.5q-0.5 0.3-1.4 0.6-0.9 0.2-2 0.2zm-3.5-6.6h5.5q0-0.8-0.3-1.3-0.3-0.5-0.9-0.8-0.5-0.3-1.4-0.3-1.2 0-1.9 0.6-0.7 0.6-1 1.8zm14 11.7q-1.4 0-2.5-0.4-1.1-0.3-1.8-1-0.6-0.7-0.6-1.7 0-0.9 0.5-1.5 0.5-0.5 1.3-0.9-0.5-0.3-0.8-0.6-0.2-0.3-0.2-0.7 0-0.5 0.3-0.9 0.2-0.4 0.9-0.6-0.9-0.6-1.3-1.5-0.5-0.9-0.5-2 0-1.1 0.5-2 0.5-0.9 1.5-1.5 0.9-0.5 2.3-0.5 0.7 0 1.3 0.2 0.6 0.2 1.2 0.6 0.4-0.3 1.1-0.4 0.6-0.2 1.4-0.2 0.1 0 0.1 0 0.1 0 0.1 0l-0.2 1.2q-0.1 0-0.3 0-0.1 0-0.2 0-0.1 0-0.5 0.1-0.4 0-0.7 0.1 0.4 0.5 0.7 1.1 0.2 0.6 0.2 1.3 0 1.2-0.5 2.1-0.5 1-1.5 1.5-0.9 0.5-2.2 0.5-0.4 0-0.8 0-0.3-0.1-0.6-0.2-0.5 0.2-0.5 0.6 0 0.2 0.3 0.4 0.2 0.2 0.8 0.3l2.8 0.4q1.7 0.3 2.6 1 0.9 0.7 0.9 2 0 1-0.6 1.7-0.7 0.7-1.8 1.1-1.2 0.4-2.7 0.4zm0.2-1.7q1.4 0 2.2-0.4 0.8-0.4 0.8-1.1 0-0.6-0.5-0.9-0.5-0.3-1.4-0.5l-3-0.5q-0.5 0.3-1 0.7-0.4 0.4-0.4 1 0 0.9 0.9 1.3 0.9 0.4 2.4 0.4zm-0.6-7.5q1.2 0 1.8-0.7 0.6-0.7 0.6-1.9 0-1.1-0.6-1.8-0.6-0.7-1.8-0.7-1.2 0-1.9 0.7-0.6 0.7-0.6 1.8 0 1.2 0.6 1.9 0.7 0.7 1.9 0.7zm12.2 4.1q-1.8 0-3.1-0.7-1.2-0.8-1.9-2-0.6-1.2-0.6-2.7 0-1.5 0.6-2.7 0.6-1.2 1.7-1.9 1.1-0.7 2.7-0.7 1.3 0 2.3 0.5 1 0.5 1.6 1.5 0.6 1 0.6 2.4 0 0.2-0.1 0.4 0 0.3 0 0.6h-7.5q0.2 1.4 0.7 2.2 0.6 0.8 1.4 1.1 0.8 0.3 1.8 0.3 0.7 0 1.5-0.1 0.8-0.2 1.5-0.5l0.2 1.5q-0.6 0.3-1.5 0.6-0.8 0.2-1.9 0.2zm-3.5-6.6h5.4q0-0.8-0.3-1.3-0.2-0.5-0.8-0.8-0.5-0.3-1.4-0.3-1.3 0-2 0.6-0.6 0.6-0.9 1.8zm8.6 6.4l3.6-5.1-3.5-5.2h2.1l2.6 4.1 2.4-4.1h2.2l-3.4 5 3.5 5.3h-2.1l-2.6-4-2.6 4z"/>
	<path id="Learn" fill-rule="evenodd" class="s1" d="m2.4 21v-14.7h2v12.9h6.7v1.8zm15.4 0.2q-1.8 0-3.1-0.7-1.2-0.8-1.9-2-0.6-1.2-0.6-2.7 0-1.5 0.6-2.7 0.6-1.2 1.7-1.9 1.2-0.7 2.8-0.7 1.2 0 2.2 0.5 1 0.5 1.6 1.5 0.6 1 0.6 2.3 0 0.3 0 0.5-0.1 0.3-0.1 0.6h-7.5q0.2 1.4 0.7 2.2 0.6 0.8 1.4 1.1 0.8 0.3 1.8 0.3 0.7 0 1.5-0.1 0.8-0.2 1.5-0.5l0.2 1.5q-0.6 0.3-1.5 0.6-0.8 0.2-1.9 0.2zm-3.5-6.6h5.4q0-0.8-0.2-1.3-0.3-0.5-0.9-0.8-0.5-0.3-1.4-0.3-1.3 0-1.9 0.6-0.7 0.6-1 1.8zm12.2 6.6q-0.9 0-1.7-0.4-0.7-0.4-1.1-1-0.4-0.7-0.4-1.6 0-0.8 0.4-1.5 0.4-0.6 1-1 0.7-0.4 1.5-0.7 0.8-0.2 1.7-0.3 0.8-0.1 1.6-0.1 0-1.5-0.6-2-0.6-0.4-1.7-0.4-0.5 0-1.2 0.2-0.6 0.1-1.5 0.7l-0.2-1.5q0.6-0.5 1.5-0.8 0.9-0.3 1.9-0.3 1.3 0 2.1 0.5 0.8 0.4 1.2 1.5 0.4 1.1 0.4 2.9v2.1q0 0.8 0 1.3 0.1 0.4 0.4 0.7 0.2 0.2 0.8 0.2h0.1l-0.3 1.5h-0.1q-0.9 0-1.4-0.2-0.5-0.1-0.8-0.5-0.2-0.3-0.4-0.8-0.6 0.7-1.4 1.1-0.8 0.4-1.8 0.4zm0.4-1.5q0.7 0 1.4-0.4 0.7-0.4 1.2-1v-2.4q-1.5 0-2.4 0.3-1 0.2-1.4 0.7-0.4 0.4-0.4 1.2 0 0.9 0.4 1.2 0.4 0.4 1.2 0.4zm7.8 1.3v-10.3h1.6l0.2 1.7q0.8-1 1.5-1.4 0.7-0.5 1.6-0.5 0.2 0 0.4 0.1l-0.1 2q-0.2 0-0.3 0-0.2 0-0.4 0-0.8 0-1.5 0.4-0.7 0.3-1 0.7v7.3zm7.2 0v-10.3h1.5l0.2 1.1q0.7-0.7 1.5-0.9 0.9-0.4 1.9-0.4 2.2 0 3.2 1.3 1 1.3 1 3.5v5.7h-1.9v-5.7q0-1.6-0.6-2.4-0.6-0.7-2.1-0.7-1 0-1.9 0.4-0.6 0.4-0.9 0.9v7.5zm1.7-9.2q-0.3 0.3-0.6 0.6l0.8 0.3zm0.2 1.7v-0.6l-0.3 1.2q0.1-0.3 0.3-0.6zm-41.8 10.5c0-0.6 0.5-1 1-1h48c0.6 0 1 0.4 1 1 0 0.5-0.4 1-1 1h-48c-0.5 0-1-0.5-1-1z"/>
</svg>